<svg xmlns="http://www.w3.org/2000/svg" width="11.996" height="11.984" viewBox="0 0 11.996 11.984">
  <g id="pencil-edit-button" transform="translate(0 -0.007)">
    <path id="Shape" d="M.277,11.984a.278.278,0,0,1-.269-.339l.616-2.78,2.44,2.45-2.72.662A.282.282,0,0,1,.277,11.984Zm3.447-1.333h0L1.284,8.2,7.46,2,9.9,4.45l-6.177,6.2Zm6.814-6.838h0L8.1,1.363,9.139.317a1.078,1.078,0,0,1,1.526,0l1.088,1.093a.84.84,0,0,1,0,1.183L10.538,3.813Z" transform="translate(0 0.007)" fill="#f5ae61"/>
  </g>
</svg>
