<?xml version="1.0" encoding="utf-8"?>
<!-- Generator: Adobe Illustrator 16.0.0, SVG Export Plug-In . SVG Version: 6.00 Build 0)  -->
<!DOCTYPE svg PUBLIC "-//W3C//DTD SVG 1.1//EN" "http://www.w3.org/Graphics/SVG/1.1/DTD/svg11.dtd">
<svg version="1.1" id="圖層_1" xmlns="http://www.w3.org/2000/svg" xmlns:xlink="http://www.w3.org/1999/xlink" x="0px" y="0px"
	 width="32.905px" height="19.523px" viewBox="0 0 32.905 19.523" enable-background="new 0 0 32.905 19.523" xml:space="preserve">
<g>
	<path fill="none" stroke="#000000" stroke-width="3" stroke-linecap="round" d="M4.672,14.944
		c2.055,0.159,6.981,3.732,15.031,2.591c6.621-0.938,11.106-5.819,11.106-5.819"/>
	<g transform="translate(1150.638 267.847) rotate(90)">
		<path d="M-249.798,1146.498c0.025,0.071,0.095,0.317-0.117,0.528l-2.912,2.892c-0.105,0.104-0.244,0.154-0.391,0.143
			c-0.147-0.012-0.277-0.083-0.364-0.202l-2.434-3.305c-0.175-0.241-0.071-0.474-0.035-0.539c0.038-0.066,0.179-0.279,0.476-0.256
			l5.345,0.414C-249.932,1146.195-249.825,1146.428-249.798,1146.498z"/>
		<path d="M-253.179,1149.562L-253.179,1149.562L-253.179,1149.562l2.911-2.892l-5.346-0.414l0,0L-253.179,1149.562
			 M-253.986,1150.155l-2.433-3.305c-0.508-0.69,0.029-1.656,0.882-1.59l5.346,0.414c0.854,0.066,1.234,1.104,0.628,1.707
			l-2.913,2.891c-0.217,0.214-0.503,0.309-0.78,0.288C-253.535,1150.538-253.805,1150.4-253.986,1150.155z"/>
	</g>
	<g>
		<path fill="none" stroke="#000000" stroke-width="3" stroke-linecap="round" d="M28.308,4.579
			c-2.054-0.159-6.98-3.732-15.03-2.591C6.656,2.928,2.171,7.808,2.171,7.808"/>
		<path d="M28.842,1.475c0.07-0.026,0.317-0.095,0.527,0.117l2.892,2.913c0.104,0.105,0.153,0.244,0.143,0.39
			c-0.012,0.148-0.082,0.277-0.201,0.364l-3.305,2.434c-0.24,0.175-0.474,0.071-0.539,0.035c-0.065-0.038-0.28-0.179-0.257-0.476
			l0.413-5.346C28.539,1.608,28.772,1.501,28.842,1.475z"/>
		<path d="M31.905,4.856L31.905,4.856L31.905,4.856l-2.891-2.912L28.6,7.291l0,0L31.905,4.856 M32.5,5.662l-3.306,2.433
			c-0.689,0.508-1.656-0.029-1.591-0.882l0.414-5.346c0.065-0.854,1.104-1.235,1.707-0.628l2.892,2.914
			c0.215,0.216,0.308,0.502,0.286,0.78C32.88,5.212,32.745,5.481,32.5,5.662z"/>
	</g>
</g>
</svg>
