<?xml version="1.0" encoding="utf-8"?>
<!-- Generator: Adobe Illustrator 16.0.0, SVG Export Plug-In . SVG Version: 6.00 Build 0)  -->
<!DOCTYPE svg PUBLIC "-//W3C//DTD SVG 1.1//EN" "http://www.w3.org/Graphics/SVG/1.1/DTD/svg11.dtd">
<svg version="1.1" id="圖層_1" xmlns="http://www.w3.org/2000/svg" xmlns:xlink="http://www.w3.org/1999/xlink" x="0px" y="0px"
	 width="284.846px" height="360.983px" viewBox="0 0 284.846 360.983" enable-background="new 0 0 284.846 360.983"
	 xml:space="preserve">
<g id="player">
	<g id="player-2" transform="matrix(0.966, -0.259, 0.259, 0.966, -2.957, 51.618)">
		<path id="Path_93" fill="#FFFFFF" d="M164.324,268.929c-21.301,0.005-39.814,14.629-44.75,35.35L36.844,15.76l11.23-6.52
			l-14.98-52.25l-12.1,3.47l-0.14-0.48l-6.73,1.93l105.2,362.569c5.275,24.852,29.697,40.723,54.548,35.449
			c24.852-5.274,40.723-29.697,35.448-54.549C204.81,284.129,186.048,268.931,164.324,268.929z"/>
		<path id="Path_94" fill="#040000" d="M117.464,313.4L16.594-36.72l15.47-4.43l14.24,49.68l-12.03,6.99
			c-0.718,0.414-0.965,1.33-0.552,2.048c0.27,0.469,0.771,0.756,1.312,0.752c0.263-0.001,0.521-0.07,0.75-0.2l13.04-7.57
			c0.592-0.347,0.876-1.05,0.69-1.71l-14.98-52.26c-0.227-0.797-1.057-1.259-1.854-1.032c-0.002,0-0.004,0.001-0.007,0.002
			l-18.35,5.26c-0.796,0.227-1.258,1.057-1.032,1.853c0.001,0.002,0.001,0.004,0.002,0.006l0,0l105.491,366.18l0.01,0.001
			c0.019,0.06,0.03,0.119,0.049,0.179c2.353,8.336,7.057,15.818,13.551,21.551c19.815,17.468,50.041,15.566,67.509-4.249
			c17.469-19.815,15.567-50.041-4.248-67.509c-8.705-7.676-19.905-11.923-31.511-11.952c-16.94-0.039-40.171,13.85-42.57,28.371
			c-0.133,0.817,0.423,1.587,1.24,1.72c0.077,0.012,0.153,0.019,0.229,0.019c0.599,0.099,1.166-0.305,1.266-0.905
			c0.008-0.047,0.013-0.096,0.014-0.145c2.271-13.02,24.461-26.11,39.821-26.07c24.759,0.064,44.777,20.188,44.713,44.947
			c-0.064,24.759-20.187,44.777-44.947,44.713c-10.874-0.028-21.368-4.008-29.527-11.2c-6.061-5.351-10.453-12.338-12.65-20.12"/>
	</g>
</g>
</svg>
