<?xml version="1.0" encoding="utf-8"?>
<!-- Generator: Adobe Illustrator 16.0.0, SVG Export Plug-In . SVG Version: 6.00 Build 0)  -->
<!DOCTYPE svg PUBLIC "-//W3C//DTD SVG 1.1//EN" "http://www.w3.org/Graphics/SVG/1.1/DTD/svg11.dtd">
<svg version="1.1" id="圖層_1" xmlns="http://www.w3.org/2000/svg" xmlns:xlink="http://www.w3.org/1999/xlink" x="0px" y="0px"
	 width="595.279px" height="841.891px" viewBox="0 0 595.279 841.891" enable-background="new 0 0 595.279 841.891"
	 xml:space="preserve">
<path d="M28.346,695.908C11.338,687.404,0,667.562,0,647.719V197.006c0-19.843,11.338-36.851,28.346-48.189
	c17.009-11.338,39.686-11.338,56.693,0L456.381,375.59c17.008,11.339,28.347,28.347,28.347,48.189
	c0,19.843-11.339,36.852-28.347,48.189L85.039,698.742c-8.504,5.67-17.008,8.504-28.346,8.504
	C48.189,707.246,36.851,704.412,28.346,695.908z M85.039,248.03v351.499l289.137-175.75L85.039,248.03z"/>
<path d="M510.24,650.553V168.66c0-22.677,19.843-42.52,42.521-42.52c22.677,0,42.52,19.843,42.52,42.52v481.893
	c0,22.678-19.843,42.521-42.52,42.521C530.082,693.073,510.24,673.23,510.24,650.553z"/>
</svg>
